<svg xmlns="http://www.w3.org/2000/svg" width="1005" height="600"><rect width="1005" height="600" x="0" y="0" fill="#FFFFFF" id="backgorund"/><g id="viz"><clipPath id="serieClipPath"><rect x="-50" y="-20" width="805" height="600"/></clipPath><g transform="translate(0,0)"><g transform="translate(50,20)" clip-path="url(#serieClipPath)"><g id="axis"><g transform="translate(0,560)" fill="none" font-size="10" font-family="sans-serif" text-anchor="middle"><path class="domain" stroke="currentColor" d="M0.5,6V0.5H735.5V6"/><g class="tick" opacity="1" transform="translate(0.5,0)"><line stroke="currentColor" y2="6"/><text fill="currentColor" y="9" dy="0.71em">Jan 03</text></g><g class="tick" opacity="1" transform="translate(57.03846153846154,0)"><line stroke="currentColor" y2="6"/><text fill="currentColor" y="9" dy="0.71em">Jan 10</text></g><g class="tick" opacity="1" transform="translate(113.57692307692308,0)"><line stroke="currentColor" y2="6"/><text fill="currentColor" y="9" dy="0.71em">Jan 17</text></g><g class="tick" opacity="1" transform="translate(170.1153846153846,0)"><line stroke="currentColor" y2="6"/><text fill="currentColor" y="9" dy="0.71em">Jan 24</text></g><g class="tick" opacity="1" transform="translate(226.65384615384616,0)"><line stroke="currentColor" y2="6"/><text fill="currentColor" y="9" dy="0.71em">Jan 31</text></g><g class="tick" opacity="1" transform="translate(283.19230769230774,0)"><line stroke="currentColor" y2="6"/><text fill="currentColor" y="9" dy="0.71em">Feb 07</text></g><g class="tick" opacity="1" transform="translate(339.7307692307692,0)"><line stroke="currentColor" y2="6"/><text fill="currentColor" y="9" dy="0.71em">Feb 14</text></g><g class="tick" opacity="1" transform="translate(396.2692307692308,0)"><line stroke="currentColor" y2="6"/><text fill="currentColor" y="9" dy="0.71em">Feb 21</text></g><g class="tick" opacity="1" transform="translate(452.8076923076923,0)"><line stroke="currentColor" y2="6"/><text fill="currentColor" y="9" dy="0.71em">Feb 28</text></g><g class="tick" opacity="1" transform="translate(509.3461538461538,0)"><line stroke="currentColor" y2="6"/><text fill="currentColor" y="9" dy="0.71em">Mar 06</text></g><g class="tick" opacity="1" transform="translate(565.8846153846155,0)"><line stroke="currentColor" y2="6"/><text fill="currentColor" y="9" dy="0.71em">Mar 13</text></g><g class="tick" opacity="1" transform="translate(622.4230769230769,0)"><line stroke="currentColor" y2="6"/><text fill="currentColor" y="9" dy="0.71em">Mar 20</text></g><g class="tick" opacity="1" transform="translate(678.9615384615385,0)"><line stroke="currentColor" y2="6"/><text fill="currentColor" y="9" dy="0.71em">Mar 27</text></g><g class="tick" opacity="1" transform="translate(735.5,0)"><line stroke="currentColor" y2="6"/><text fill="currentColor" y="9" dy="0.71em">Apr 03</text></g><text x="735" dy="-5" text-anchor="end" style="font-family: Arial, sans-serif; font-size: 12px; fill: rgb(123, 123, 123); font-weight: bold;">日期</text></g><g transform="translate(0,0)" fill="none" font-size="10" font-family="sans-serif" text-anchor="end"><path class="domain" stroke="currentColor" d="M0.5,560.5V0.5"/><g class="tick" opacity="1" transform="translate(0,560.5)"><line stroke="currentColor" x2="-6"/><text fill="currentColor" x="-9" dy="0.32em">112</text></g><g class="tick" opacity="1" transform="translate(0,490.5)"><line stroke="currentColor" x2="-6"/><text fill="currentColor" x="-9" dy="0.32em">113</text></g><g class="tick" opacity="1" transform="translate(0,420.5)"><line stroke="currentColor" x2="-6"/><text fill="currentColor" x="-9" dy="0.32em">114</text></g><g class="tick" opacity="1" transform="translate(0,350.5)"><line stroke="currentColor" x2="-6"/><text fill="currentColor" x="-9" dy="0.32em">115</text></g><g class="tick" opacity="1" transform="translate(0,280.5)"><line stroke="currentColor" x2="-6"/><text fill="currentColor" x="-9" dy="0.32em">116</text></g><g class="tick" opacity="1" transform="translate(0,210.5)"><line stroke="currentColor" x2="-6"/><text fill="currentColor" x="-9" dy="0.32em">117</text></g><g class="tick" opacity="1" transform="translate(0,140.5)"><line stroke="currentColor" x2="-6"/><text fill="currentColor" x="-9" dy="0.32em">118</text></g><g class="tick" opacity="1" transform="translate(0,70.5)"><line stroke="currentColor" x2="-6"/><text fill="currentColor" x="-9" dy="0.32em">119</text></g><g class="tick" opacity="1" transform="translate(0,0.5)"><line stroke="currentColor" x2="-6"/><text fill="currentColor" x="-9" dy="0.32em">120</text></g><text x="4" text-anchor="start" dominant-baseline="hanging" style="font-family: Arial, sans-serif; font-size: 12px; fill: rgb(123, 123, 123); font-weight: bold;">收盤價</text></g></g><g id="viz"><g><path d="M0,490L1.3461538461538465,484.1666666666667C2.692307692307693,478.3333333333333,5.384615384615386,466.6666666666667,8.076923076923078,455C10.769230769230772,443.3333333333333,13.461538461538465,431.6666666666667,16.153846153846157,425.8333333333333C18.84615384615385,420,21.538461538461537,420,26.923076923076923,408.3333333333333C32.30769230769231,396.6666666666667,40.38461538461538,373.3333333333333,45.76923076923077,361.6666666666667C51.15384615384615,350,53.84615384615385,350,56.53846153846155,361.6666666666667C59.23076923076923,373.3333333333333,61.923076923076934,396.6666666666667,64.61538461538463,414.1666666666667C67.30769230769232,431.6666666666667,70,443.3333333333333,72.6923076923077,443.3333333333333C75.38461538461539,443.3333333333333,78.07692307692308,431.6666666666667,83.46153846153847,414.1666666666667C88.84615384615385,396.6666666666667,96.92307692307692,373.3333333333333,102.3076923076923,373.3333333333333C107.6923076923077,373.3333333333333,110.3846153846154,396.6666666666667,129.23076923076925,402.5C148.07692307692307,408.3333333333333,183.07692307692307,396.6666666666667,201.9230769230769,414.1666666666667C220.76923076923075,431.6666666666667,223.46153846153845,478.3333333333333,226.15384615384616,501.6666666666667C228.84615384615384,525,231.53846153846155,525,234.23076923076925,530.8333333333334C236.9230769230769,536.6666666666666,239.6153846153846,548.3333333333334,242.3076923076923,542.5C245,536.6666666666666,247.6923076923077,513.3333333333334,253.0769230769231,507.5C258.4615384615385,501.6666666666667,266.53846153846155,513.3333333333334,271.92307692307696,519.1666666666666C277.3076923076923,525,280.00000000000006,525,282.69230769230774,525C285.3846153846154,525,288.0769230769231,525,290.7692307692308,525C293.4615384615385,525,296.1538461538462,525,298.84615384615387,519.1666666666666C301.5384615384616,513.3333333333334,304.2307692307693,501.6666666666667,309.61538461538464,490C315.00000000000006,478.3333333333333,323.0769230769231,466.6666666666667,328.4615384615385,455C333.84615384615387,443.3333333333333,336.53846153846155,431.6666666666667,339.2307692307692,431.6666666666667C341.9230769230769,431.6666666666667,344.6153846153846,443.3333333333333,347.3076923076923,443.3333333333333C350,443.3333333333333,352.6923076923077,431.6666666666667,355.3846153846154,431.6666666666667C358.0769230769231,431.6666666666667,360.7692307692308,443.3333333333333,366.1538461538462,431.6666666666667C371.5384615384615,420,379.6153846153846,385,385,373.3333333333333C390.3846153846154,361.6666666666667,393.0769230769231,373.3333333333333,395.7692307692308,373.3333333333333C398.4615384615385,373.3333333333333,401.1538461538462,361.6666666666667,403.8461538461538,350C406.5384615384616,338.3333333333333,409.2307692307692,326.6666666666667,411.9230769230769,320.8333333333333C414.6153846153846,315,417.3076923076923,315,428.0769230769231,303.3333333333333C438.8461538461538,291.6666666666667,457.6923076923077,268.3333333333333,468.4615384615385,245C479.2307692307692,221.66666666666666,481.9230769230769,198.33333333333334,487.3076923076923,180.83333333333334C492.6923076923076,163.33333333333334,500.7692307692307,151.66666666666666,506.1538461538462,140C511.5384615384616,128.33333333333334,514.2307692307693,116.66666666666667,516.923076923077,105C519.6153846153846,93.33333333333333,522.3076923076924,81.66666666666667,525,81.66666666666667C527.6923076923077,81.66666666666667,530.3846153846154,93.33333333333333,533.0769230769231,110.83333333333333C535.7692307692308,128.33333333333334,538.4615384615385,151.66666666666666,543.8461538461538,145.83333333333334C549.2307692307693,140,557.3076923076924,105,562.6923076923077,105C568.0769230769232,105,570.7692307692308,140,573.4615384615385,140C576.1538461538462,140,578.8461538461538,105,581.5384615384615,87.5C584.2307692307692,70,586.923076923077,70,589.6153846153846,81.66666666666667C592.3076923076924,93.33333333333333,595,116.66666666666667,600.3846153846154,116.66666666666667C605.7692307692308,116.66666666666667,613.8461538461538,93.33333333333333,619.2307692307692,87.5C624.6153846153846,81.66666666666667,627.3076923076923,93.33333333333333,630,87.5C632.6923076923077,81.66666666666667,635.3846153846154,58.333333333333336,638.0769230769231,40.833333333333336C640.7692307692308,23.333333333333332,643.4615384615385,11.666666666666666,646.1538461538461,11.666666666666666C648.8461538461538,11.666666666666666,651.5384615384615,23.333333333333332,656.9230769230769,23.333333333333332C662.3076923076923,23.333333333333332,670.3846153846154,11.666666666666666,675.7692307692307,11.666666666666666C681.1538461538462,11.666666666666666,683.8461538461538,23.333333333333332,686.5384615384615,23.333333333333332C689.2307692307692,23.333333333333332,691.923076923077,11.666666666666666,693.2692307692308,5.833333333333333L694.6153846153846,0" stroke="#1f77b4" fill="none"/><text font-family="sans-serif" font-size="10" class="labels" x="646.1538461538462" y="0" dx="0" dy="-4" text-anchor="middle"/></g></g></g><text y="4" x="4" style="font-family: Arial, sans-serif; font-size: 12px; fill: black; font-weight: bold; dominant-baseline: hanging;"/></g><g id="grid"><rect x="0" y="0" width="805" height="600" fill="none" stroke="#ccc"/></g></g><g id="legend" transform="translate(805,20)"><g transform="translate(5,0)"/></g></svg>